<svg width="935" height="980" viewBox="0 0 935 980" fill="none" xmlns="http://www.w3.org/2000/svg">
<path d="M520 14.9333C509.067 22.9333 496.933 31.6 493.067 34.2666C486.267 38.8 486.267 39.0666 483.467 50.4C481.867 56.8 479.2 68.9333 477.467 77.3333C475.6 85.7333 471.2 106.133 467.467 122.667C463.867 139.2 458.667 162.533 456 174.667C453.333 186.8 450.8 198 450.4 199.6L449.733 202.667H276.8H104L78.6668 228.267L53.3335 254L245.733 254.4C419.733 254.667 438 254.933 438 256.8C438 258 434.133 276.933 429.333 299.067C424.667 321.2 417.733 353.467 414.133 370.667C410.4 387.867 405.067 413.067 402.133 426.667C394.267 463.2 378 540.267 368.133 587.333C359.333 629.067 354.533 651.6 347.333 683.6C345.067 693.2 343.333 701.733 343.333 702.533C343.333 703.333 345.2 704 347.333 704C349.6 704 351.333 703.867 351.333 703.6C351.333 702.667 366.267 643.733 367.867 638.667C368.933 635.333 371.6 625.467 374 616.667C376.4 607.867 380.267 593.467 382.667 584.667C390.8 554.8 396.533 534.133 404.667 503.333C409.2 486.4 414.4 467.867 416 462C417.733 456.133 421.6 441.733 424.8 430C427.867 418.267 432.267 401.467 434.8 392.667C437.2 383.867 442.267 365.6 445.867 352C449.6 338.4 454.933 318.667 457.867 308C471.333 258.667 481.333 222.133 484.933 208.667C487.067 200.533 492.133 182 496.133 167.333C504.4 137.867 518 88.4 522 74C523.467 68.8 528.4 51.2 532.8 34.6666C537.333 18.1333 541.333 3.59996 541.6 2.26663C542 1.06663 541.733 -3.67165e-05 541.2 0.133297C540.533 0.133297 531.067 6.79996 520 14.9333Z" fill="#FF0000"/>
<path d="M514 204.4C514 206.267 506.134 235.2 496.667 268C493.867 277.867 489.067 294.933 486 306C482.934 316.933 479.334 329.867 477.867 334.667C476.534 339.467 473.6 350.267 471.334 358.667C466.534 376.533 458.8 404.267 450.667 432.667C447.6 443.6 442.534 462 439.334 473.333C436.267 484.667 432.267 499.067 430.4 505.333C428.667 511.6 424.4 526.533 421.2 538.667C418 550.8 414.4 563.333 413.467 566.667C412.4 570 410 578.4 408.134 585.333C406.267 592.267 400.134 614.8 394.534 635.333C388.934 655.867 383.867 674.4 383.334 676.667C382.267 680.933 376 704.267 370.4 725.333C367.067 737.733 363.867 750 352.8 792.667C349.733 804.4 344 826 340 840.667C336.133 855.333 330.133 878.133 326.667 891.333C323.2 904.533 318.4 922.533 316 931.333C310.667 950.4 303.333 978 303.333 979.2C303.333 979.6 305.067 980 307.2 980C311.2 980 311.2 979.867 317.333 960.267C323.867 939.333 330.8 917.067 346 869.333C351.2 852.8 358.8 828.8 362.8 816C366.933 803.2 371.333 789.333 372.667 785.333C374 781.333 376.267 774.133 377.733 769.333C382.134 755.067 412.667 658.533 415.334 650.667C416.667 646.667 420.267 635.467 423.2 626C426.134 616.4 431.334 600 434.667 589.333C438 578.667 443.2 562.133 446.267 552.667C449.2 543.067 454.534 526.267 458.134 515.333C477.867 453.733 485.467 430.133 524 309.733C532.4 283.067 540 259.867 540.667 258L541.867 254.667L718.534 254.4L895.2 254L877.2 233.333C867.2 222 857.2 210.4 854.934 207.6L850.8 202.667H682.4C542.4 202.667 514 202.933 514 204.4Z" fill="#FF0000"/>
</svg>
